<mxfile host="app.diagrams.net" modified="2024-07-08T20:43:39.444Z" agent="Mozilla/5.0 (X11; Linux x86_64) AppleWebKit/537.36 (KHTML, like Gecko) Chrome/126.0.0.0 Safari/537.36" etag="XFq3GaibjLdbZFlm3Ng3" version="24.3.0" type="github">
  <diagram id="C5RBs43oDa-KdzZeNtuy" name="Page-1">
    <mxGraphModel dx="1196" dy="705" grid="1" gridSize="10" guides="1" tooltips="1" connect="1" arrows="1" fold="1" page="1" pageScale="1" pageWidth="827" pageHeight="1169" math="0" shadow="0">
      <root>
        <mxCell id="WIyWlLk6GJQsqaUBKTNV-0" />
        <mxCell id="WIyWlLk6GJQsqaUBKTNV-1" parent="WIyWlLk6GJQsqaUBKTNV-0" />
        <mxCell id="WIyWlLk6GJQsqaUBKTNV-12" value="Replace Bulb" style="rounded=1;whiteSpace=wrap;html=1;fontSize=32;glass=0;strokeWidth=4;shadow=0;fontStyle=1" parent="WIyWlLk6GJQsqaUBKTNV-1" vertex="1">
          <mxGeometry x="80" y="80" width="120" height="40" as="geometry" />
        </mxCell>
        <mxCell id="7tVCnCqwYULEwIvl_FY4-0" value="" style="shape=table;startSize=0;container=1;collapsible=0;childLayout=tableLayout;fontSize=32;fontStyle=1;strokeWidth=4;" vertex="1" parent="WIyWlLk6GJQsqaUBKTNV-1">
          <mxGeometry x="80" y="40" width="240" height="240" as="geometry" />
        </mxCell>
        <mxCell id="7tVCnCqwYULEwIvl_FY4-1" value="" style="shape=tableRow;horizontal=0;startSize=0;swimlaneHead=0;swimlaneBody=0;strokeColor=inherit;top=0;left=0;bottom=0;right=0;collapsible=0;dropTarget=0;fillColor=none;points=[[0,0.5],[1,0.5]];portConstraint=eastwest;fontSize=32;fontStyle=1;strokeWidth=4;" vertex="1" parent="7tVCnCqwYULEwIvl_FY4-0">
          <mxGeometry width="240" height="80" as="geometry" />
        </mxCell>
        <mxCell id="7tVCnCqwYULEwIvl_FY4-2" value="6" style="shape=partialRectangle;html=1;whiteSpace=wrap;connectable=0;strokeColor=inherit;overflow=hidden;fillColor=none;top=0;left=0;bottom=0;right=0;pointerEvents=1;fontSize=32;fontStyle=1;strokeWidth=4;" vertex="1" parent="7tVCnCqwYULEwIvl_FY4-1">
          <mxGeometry width="80" height="80" as="geometry">
            <mxRectangle width="80" height="80" as="alternateBounds" />
          </mxGeometry>
        </mxCell>
        <mxCell id="7tVCnCqwYULEwIvl_FY4-3" value="2" style="shape=partialRectangle;html=1;whiteSpace=wrap;connectable=0;strokeColor=inherit;overflow=hidden;fillColor=none;top=0;left=0;bottom=0;right=0;pointerEvents=1;fontSize=32;fontStyle=1;strokeWidth=4;" vertex="1" parent="7tVCnCqwYULEwIvl_FY4-1">
          <mxGeometry x="80" width="80" height="80" as="geometry">
            <mxRectangle width="80" height="80" as="alternateBounds" />
          </mxGeometry>
        </mxCell>
        <mxCell id="7tVCnCqwYULEwIvl_FY4-4" value="-3" style="shape=partialRectangle;html=1;whiteSpace=wrap;connectable=0;strokeColor=inherit;overflow=hidden;fillColor=none;top=0;left=0;bottom=0;right=0;pointerEvents=1;fontSize=32;fontStyle=1;strokeWidth=4;" vertex="1" parent="7tVCnCqwYULEwIvl_FY4-1">
          <mxGeometry x="160" width="80" height="80" as="geometry">
            <mxRectangle width="80" height="80" as="alternateBounds" />
          </mxGeometry>
        </mxCell>
        <mxCell id="7tVCnCqwYULEwIvl_FY4-5" value="" style="shape=tableRow;horizontal=0;startSize=0;swimlaneHead=0;swimlaneBody=0;strokeColor=inherit;top=0;left=0;bottom=0;right=0;collapsible=0;dropTarget=0;fillColor=none;points=[[0,0.5],[1,0.5]];portConstraint=eastwest;fontSize=32;fontStyle=1;strokeWidth=4;" vertex="1" parent="7tVCnCqwYULEwIvl_FY4-0">
          <mxGeometry y="80" width="240" height="80" as="geometry" />
        </mxCell>
        <mxCell id="7tVCnCqwYULEwIvl_FY4-6" value="10" style="shape=partialRectangle;html=1;whiteSpace=wrap;connectable=0;strokeColor=inherit;overflow=hidden;fillColor=none;top=0;left=0;bottom=0;right=0;pointerEvents=1;fontSize=32;fontStyle=1;strokeWidth=4;" vertex="1" parent="7tVCnCqwYULEwIvl_FY4-5">
          <mxGeometry width="80" height="80" as="geometry">
            <mxRectangle width="80" height="80" as="alternateBounds" />
          </mxGeometry>
        </mxCell>
        <mxCell id="7tVCnCqwYULEwIvl_FY4-7" value="0" style="shape=partialRectangle;html=1;whiteSpace=wrap;connectable=0;strokeColor=inherit;overflow=hidden;fillColor=none;top=0;left=0;bottom=0;right=0;pointerEvents=1;fontSize=32;fontStyle=1;strokeWidth=4;" vertex="1" parent="7tVCnCqwYULEwIvl_FY4-5">
          <mxGeometry x="80" width="80" height="80" as="geometry">
            <mxRectangle width="80" height="80" as="alternateBounds" />
          </mxGeometry>
        </mxCell>
        <mxCell id="7tVCnCqwYULEwIvl_FY4-8" value="1" style="shape=partialRectangle;html=1;whiteSpace=wrap;connectable=0;strokeColor=inherit;overflow=hidden;fillColor=none;top=0;left=0;bottom=0;right=0;pointerEvents=1;fontSize=32;fontStyle=1;strokeWidth=4;" vertex="1" parent="7tVCnCqwYULEwIvl_FY4-5">
          <mxGeometry x="160" width="80" height="80" as="geometry">
            <mxRectangle width="80" height="80" as="alternateBounds" />
          </mxGeometry>
        </mxCell>
        <mxCell id="7tVCnCqwYULEwIvl_FY4-9" value="" style="shape=tableRow;horizontal=0;startSize=0;swimlaneHead=0;swimlaneBody=0;strokeColor=inherit;top=0;left=0;bottom=0;right=0;collapsible=0;dropTarget=0;fillColor=none;points=[[0,0.5],[1,0.5]];portConstraint=eastwest;fontSize=32;fontStyle=1;strokeWidth=4;" vertex="1" parent="7tVCnCqwYULEwIvl_FY4-0">
          <mxGeometry y="160" width="240" height="80" as="geometry" />
        </mxCell>
        <mxCell id="7tVCnCqwYULEwIvl_FY4-10" value="8" style="shape=partialRectangle;html=1;whiteSpace=wrap;connectable=0;strokeColor=inherit;overflow=hidden;fillColor=none;top=0;left=0;bottom=0;right=0;pointerEvents=1;fontSize=32;fontStyle=1;strokeWidth=4;" vertex="1" parent="7tVCnCqwYULEwIvl_FY4-9">
          <mxGeometry width="80" height="80" as="geometry">
            <mxRectangle width="80" height="80" as="alternateBounds" />
          </mxGeometry>
        </mxCell>
        <mxCell id="7tVCnCqwYULEwIvl_FY4-11" value="3" style="shape=partialRectangle;html=1;whiteSpace=wrap;connectable=0;strokeColor=inherit;overflow=hidden;fillColor=none;top=0;left=0;bottom=0;right=0;pointerEvents=1;fontSize=32;fontStyle=1;strokeWidth=4;" vertex="1" parent="7tVCnCqwYULEwIvl_FY4-9">
          <mxGeometry x="80" width="80" height="80" as="geometry">
            <mxRectangle width="80" height="80" as="alternateBounds" />
          </mxGeometry>
        </mxCell>
        <mxCell id="7tVCnCqwYULEwIvl_FY4-12" value="5" style="shape=partialRectangle;html=1;whiteSpace=wrap;connectable=0;strokeColor=inherit;overflow=hidden;fillColor=none;top=0;left=0;bottom=0;right=0;pointerEvents=1;fontSize=32;fontStyle=1;strokeWidth=4;" vertex="1" parent="7tVCnCqwYULEwIvl_FY4-9">
          <mxGeometry x="160" width="80" height="80" as="geometry">
            <mxRectangle width="80" height="80" as="alternateBounds" />
          </mxGeometry>
        </mxCell>
        <mxCell id="7tVCnCqwYULEwIvl_FY4-16" value="5" style="rounded=0;whiteSpace=wrap;html=1;fontSize=32;fontStyle=1;strokeWidth=4;" vertex="1" parent="WIyWlLk6GJQsqaUBKTNV-1">
          <mxGeometry x="320" y="40" width="80" height="80" as="geometry" />
        </mxCell>
        <mxCell id="7tVCnCqwYULEwIvl_FY4-17" value="-4" style="rounded=0;whiteSpace=wrap;html=1;fontSize=32;fontStyle=1;strokeWidth=4;" vertex="1" parent="WIyWlLk6GJQsqaUBKTNV-1">
          <mxGeometry x="320" y="120" width="80" height="80" as="geometry" />
        </mxCell>
        <mxCell id="7tVCnCqwYULEwIvl_FY4-18" value="15" style="rounded=0;whiteSpace=wrap;html=1;fontSize=32;fontStyle=1;strokeWidth=4;" vertex="1" parent="WIyWlLk6GJQsqaUBKTNV-1">
          <mxGeometry x="320" y="200" width="80" height="80" as="geometry" />
        </mxCell>
      </root>
    </mxGraphModel>
  </diagram>
</mxfile>
